<svg height="512pt" viewBox="-24 0 512 512" width="512pt" xmlns="http://www.w3.org/2000/svg"><path d="m412.652344 327.589844h-360.4375c-28.789063 0-52.214844 23.425781-52.214844 52.214844v79.980468c0 28.789063 23.425781 52.214844 52.214844 52.214844h360.4375c28.792968 0 52.21875-23.425781 52.21875-52.214844v-79.980468c0-28.789063-23.425782-52.214844-52.21875-52.214844zm22.21875 132.195312c0 12.25-9.96875 22.214844-22.21875 22.214844h-360.4375c-12.25 0-22.214844-9.964844-22.214844-22.214844v-79.980468c0-12.25 9.964844-22.214844 22.214844-22.214844h360.4375c12.25 0 22.21875 9.964844 22.21875 22.214844zm0 0"/><path d="m389.023438 400.242188-3.914063 1.273437v-4.117187c0-8.285157-6.714844-15-15-15-8.28125 0-15 6.714843-15 15v4.117187l-3.914063-1.273437c-7.878906-2.5625-16.339843 1.75-18.898437 9.628906-2.5625 7.878906 1.75 16.34375 9.628906 18.902344l3.914063 1.273437-2.417969 3.328125c-4.871094 6.703125-3.386719 16.082031 3.316406 20.953125 2.664063 1.933594 5.75 2.863281 8.804688 2.863281 4.640625 0 9.214843-2.144531 12.148437-6.183594l2.417969-3.328124 2.417969 3.328124c2.9375 4.042969 7.511718 6.183594 12.148437 6.183594 3.058594 0 6.144531-.929687 8.804688-2.863281 6.703125-4.871094 8.1875-14.25 3.320312-20.953125l-2.421875-3.328125 3.914063-1.273437c7.878906-2.558594 12.191406-11.023438 9.632812-18.902344-2.5625-7.878906-11.019531-12.1875-18.902343-9.628906zm0 0"/><path d="m297.242188 400.242188-3.914063 1.273437v-4.117187c0-8.285157-6.71875-15-15-15-8.285156 0-15 6.714843-15 15v4.117187l-3.914063-1.273437c-7.882812-2.5625-16.34375 1.75-18.902343 9.628906-2.558594 7.878906 1.75 16.34375 9.628906 18.902344l3.914063 1.273437-2.417969 3.328125c-4.867188 6.703125-3.382813 16.082031 3.316406 20.953125 2.664063 1.933594 5.75 2.863281 8.808594 2.863281 4.636719 0 9.210937-2.144531 12.144531-6.183594l2.417969-3.328124 2.421875 3.328124c2.933594 4.042969 7.507812 6.183594 12.144531 6.183594 3.058594 0 6.144531-.929687 8.804687-2.863281 6.703126-4.871094 8.191407-14.25 3.320313-20.953125l-2.417969-3.328125 3.914063-1.273437c7.878906-2.558594 12.1875-11.023438 9.628906-18.902344s-11.019531-12.1875-18.898437-9.628906zm0 0"/><path d="m205.457031 400.242188-3.914062 1.273437v-4.117187c0-8.285157-6.714844-15-15-15-8.285157 0-15 6.714843-15 15v4.117187l-3.914063-1.273437c-7.878906-2.5625-16.339844 1.75-18.902344 9.628906-2.558593 7.878906 1.753907 16.34375 9.632813 18.902344l3.914063 1.273437-2.421876 3.328125c-4.867187 6.703125-3.382812 16.082031 3.320313 20.953125 2.664063 1.933594 5.746094 2.863281 8.804687 2.863281 4.636719 0 9.210938-2.144531 12.144532-6.183594l2.421875-3.328124 2.417969 3.328124c2.933593 4.042969 7.507812 6.183594 12.148437 6.183594 3.054687 0 6.140625-.929687 8.804687-2.863281 6.699219-4.871094 8.1875-14.25 3.316407-20.953125l-2.417969-3.328125 3.914062-1.273437c7.878907-2.558594 12.1875-11.023438 9.628907-18.902344-2.554688-7.878906-11.019531-12.1875-18.898438-9.628906zm0 0"/><path d="m113.671875 400.242188-3.914063 1.273437v-4.117187c0-8.285157-6.714843-15-15-15-8.28125 0-15 6.714843-15 15v4.117187l-3.914062-1.273437c-7.878906-2.5625-16.339844 1.75-18.898438 9.628906-2.5625 7.878906 1.75 16.34375 9.628907 18.902344l3.914062 1.273437-2.417969 3.328125c-4.871093 6.703125-3.386718 16.082031 3.316407 20.953125 2.664062 1.933594 5.746093 2.863281 8.804687 2.863281 4.636719 0 9.210938-2.144531 12.148438-6.183594l2.417968-3.328124 2.417969 3.328124c2.9375 4.042969 7.511719 6.183594 12.148438 6.183594 3.058593 0 6.144531-.929687 8.804687-2.863281 6.703125-4.871094 8.1875-14.25 3.316406-20.953125l-2.417968-3.328125 3.914062-1.273437c7.878906-2.558594 12.191406-11.023438 9.628906-18.902344-2.554687-7.878906-11.019531-12.1875-18.898437-9.628906zm0 0"/><path d="m232.433594 298.484375c82.292968 0 149.242187-66.953125 149.242187-149.242187 0-82.292969-66.949219-149.242188-149.242187-149.242188-82.289063 0-149.238282 66.949219-149.238282 149.242188 0 82.289062 66.949219 149.242187 149.238282 149.242187zm-59.96875-46.214844v-15.230469c0-18.464843 8.542968-35.75 22.789062-47.027343 10.714844 6.964843 23.476563 11.027343 37.179688 11.027343s26.46875-4.0625 37.183594-11.027343c14.242187 11.277343 22.789062 28.5625 22.789062 47.027343v15.230469c-17.628906 10.300781-38.121094 16.214844-59.972656 16.214844-21.847656 0-42.339844-5.914063-59.96875-16.214844zm59.96875-81.230469c-21.179688 0-38.410156-17.230468-38.410156-38.410156 0-21.179687 17.230468-38.410156 38.410156-38.410156 21.179687 0 38.414062 17.230469 38.414062 38.410156 0 21.179688-17.234375 38.410156-38.414062 38.410156zm0-141.039062c65.75 0 119.242187 53.492188 119.242187 119.242188 0 30.128906-11.238281 57.675781-29.734375 78.691406-2.363281-23.171875-13.664062-44.472656-31.277344-59.449219 6.449219-10.433594 10.183594-22.714844 10.183594-35.855469 0-37.722656-30.691406-68.410156-68.414062-68.410156-37.71875 0-68.410156 30.6875-68.410156 68.410156 0 13.140625 3.734374 25.421875 10.179687 35.855469-17.609375 14.976563-28.910156 36.277344-31.273437 59.449219-18.496094-21.011719-29.734376-48.5625-29.734376-78.691406 0-65.75 53.488282-119.242188 119.238282-119.242188zm0 0"/></svg>