<svg height="490pt" viewBox="-7 0 490 490.23046" width="490pt" xmlns="http://www.w3.org/2000/svg"><path d="m472.167969 295.199219c-8.917969-15.199219-28.394531-20.417969-43.71875-11.710938l-68.28125 39.390625c-1.480469-3.535156-3.621094-6.757812-6.300781-9.496094-5.984376-6.023437-14.128907-9.402343-22.617188-9.382812h-120c-1.359375 0-2.699219.347656-3.886719 1.007812l-52.914062 29.441407-8.917969-24.496094c-1.503906-4.15625-6.09375-6.308594-10.25-4.800781l-75.199219 27.359375c-2 .722656-3.625 2.210937-4.527343 4.132812-.898438 1.925781-1 4.128907-.273438 6.125l2.738281 7.511719-52.625 19.199219c-4.15625 1.503906-6.304687 6.09375-4.800781 10.246093l38.351562 105.226563c1.503907 4.15625 6.09375 6.304687 10.25 4.800781l52.628907-19.160156 2.738281 7.519531c1.503906 4.15625 6.089844 6.304688 10.246094 4.796875l75.199218-27.359375c4.15625-1.503906 6.308594-6.089843 4.800782-10.246093l-1.957032-5.304688h90.398438c1.402344 0 2.785156-.371094 4-1.070312l173.199219-100c9.953125-5.671876 16.074219-16.273438 16-27.730469-.007813-5.613281-1.484375-11.128907-4.28125-16zm-420.917969 176.800781-32.800781-90.246094 45.105469-16.425781 32.839843 90.214844zm65.601562-6.847656-43.769531-120.351563 60.136719-21.898437 43.78125 120.296875zm335.597657-140.082032-171.34375 98.929688h-94.078125l-27.050782-74.320312 53.351563-29.679688h117.921875c4.238281-.007812 8.308594 1.679688 11.296875 4.6875 1.730469 1.730469 3.027344 3.851562 3.773437 6.183594.644532 1.632812.960938 3.375.929688 5.128906 0 8.835938-7.164062 16-16 16h-88v16h88c16.152344-.050781 29.726562-12.15625 31.617188-28.199219l73.550781-42.449219c4.949219-2.855468 11.046875-2.859374 15.996093 0 4.949219 2.855469 8 8.132813 8.003907 13.847657.042969 5.722656-3.003907 11.027343-7.96875 13.871093zm0 0"/><path d="m131.25 88v208h16v-208c0-4.417969 3.582031-8 8-8h184v56c0 3.527344 2.304688 6.636719 5.679688 7.65625 3.375 1.023438 7.019531-.28125 8.976562-3.214844l9.34375-14.042968 9.34375 14.015624c1.953125 2.929688 5.59375 4.238282 8.964844 3.222657s5.679687-4.117188 5.691406-7.636719v-56h8c4.417969 0 8 3.582031 8 8v192h16v-192c0-13.253906-10.746094-24-24-24h-240c-13.253906 0-24 10.746094-24 24zm240 21.601562-1.34375-2.015624c-1.570312-2.101563-4.035156-3.335938-6.65625-3.335938s-5.085938 1.234375-6.65625 3.335938l-1.34375 2.015624v-29.601562h16zm0 0"/><path d="m99.25 56v240h16v-240c0-4.417969 3.582031-8 8-8h240c4.417969 0 8 3.582031 8 8h16c0-13.253906-10.746094-24-24-24h-240c-13.253906 0-24 10.746094-24 24zm0 0"/><path d="m83.25 24c0-4.417969 3.582031-8 8-8h240c4.417969 0 8 3.582031 8 8h16c0-13.253906-10.746094-24-24-24h-240c-13.253906 0-24 10.746094-24 24v272h16zm0 0"/><path d="m179.25 104h48v16h-48zm0 0"/><path d="m179.25 136h48v16h-48zm0 0"/><path d="m355.25 200c-.042969-39.746094-32.253906-71.957031-72-72-4.417969 0-8 3.582031-8 8v64c0 4.417969 3.582031 8 8 8h64c4.417969 0 8-3.582031 8-8zm-64-8v-47.433594c24.558594 3.585938 43.847656 22.875 47.433594 47.433594zm0 0"/><path d="m259.25 296c39.746094-.042969 71.957031-32.253906 72-72 0-4.417969-3.582031-8-8-8h-56v-56c0-4.417969-3.582031-8-8-8-39.765625 0-72 32.234375-72 72s32.234375 72 72 72zm-8-127.433594v55.433594c0 4.417969 3.582031 8 8 8h55.433594c-4.128906 28.558594-29.28125 49.308594-58.105469 47.929688-28.820313-1.378907-51.878906-24.4375-53.257813-53.261719-1.378906-28.820313 19.371094-53.972657 47.929688-58.101563zm0 0"/></svg>